<svg width="181" height="45" viewBox="0 0 181 45" fill="none" xmlns="http://www.w3.org/2000/svg">
<path fill-rule="evenodd" clip-rule="evenodd" d="M34.7836 3.08612L30.4219 1.66019C30.3719 1.26725 30.0454 0.963867 29.65 0.963867C29.3154 0.963867 29.0301 1.18122 28.92 1.48626L24.3625 1.51914C24.2616 1.19696 23.9679 0.963867 23.6214 0.963867C23.2044 0.963867 22.864 1.30131 22.8439 1.72536L15.2041 3.36939C15.0393 3.13341 14.7703 2.97971 14.4665 2.97971C13.9652 2.97971 13.5588 3.39803 13.5588 3.91404C13.5588 4.07286 13.5973 4.22242 13.6652 4.35338L3.39368 12.7185C3.23111 12.5605 3.01182 12.4636 2.77054 12.4636C2.26923 12.4636 1.86284 12.8819 1.86284 13.3979C1.86284 13.7255 2.0266 14.0137 2.27445 14.1805L1.59134 23.2774C1.55025 23.2738 1.50867 23.272 1.46669 23.272C0.656659 23.272 0 23.9479 0 24.7817C0 25.6155 0.656659 26.2914 1.46669 26.2914C1.65181 26.2914 1.82893 26.2561 1.99203 26.1917L6.24765 33.9438C5.97881 34.1448 5.80401 34.471 5.80401 34.8393C5.80401 35.4502 6.28513 35.9454 6.87863 35.9454C7.20702 35.9454 7.501 35.7938 7.69812 35.5549L13.7813 37.6776C13.781 37.688 13.7809 37.6985 13.7809 37.709C13.7809 38.4186 14.3398 38.994 15.0293 38.994C15.2291 38.994 15.418 38.9456 15.5855 38.8597L19.6938 42.9272C19.6368 43.0744 19.6054 43.2349 19.6054 43.4031C19.6054 44.1127 20.1643 44.688 20.8538 44.688C21.5432 44.688 22.1021 44.1127 22.1021 43.4031C22.1021 43.1508 22.0315 42.9154 21.9095 42.7169L25.5088 36.2983C26.2097 36.2646 26.7678 35.669 26.7678 34.9393C26.7678 34.9211 26.7675 34.9031 26.7668 34.8851L37.793 29.8752C37.9777 30.038 38.2175 30.1362 38.4797 30.1362C39.0632 30.1362 39.5362 29.6494 39.5362 29.0487C39.5362 28.7151 39.3903 28.4166 39.1605 28.2171L42.6793 19.7753C42.7466 19.7863 42.8156 19.7919 42.8858 19.7919C43.6104 19.7919 44.1978 19.1873 44.1978 18.4415C44.1978 17.6957 43.6104 17.091 42.8858 17.091C42.8733 17.091 42.8608 17.0912 42.8483 17.0916L41.7155 10.3533C42.0194 10.1623 42.2222 9.81779 42.2222 9.42452C42.2222 8.82391 41.7491 8.33702 41.1656 8.33702C40.9883 8.33702 40.8212 8.38199 40.6744 8.46146L36.4561 4.39488C36.5522 4.23103 36.6075 4.03897 36.6075 3.83362C36.6075 3.23301 36.1345 2.74611 35.551 2.74611C35.2488 2.74611 34.9762 2.87674 34.7836 3.08612ZM26.6141 34.3018L37.4698 29.3693C37.4395 29.268 37.4232 29.1603 37.4232 29.0487C37.4232 28.9715 37.431 28.8961 37.4459 28.8234L33.7613 27.4731C33.4944 27.8894 33.036 28.1641 32.5151 28.1641C32.2394 28.1641 31.9811 28.0871 31.7594 27.9528L26.5622 34.2101C26.5806 34.2399 26.5979 34.2705 26.6141 34.3018ZM26.1499 33.7875L31.3259 27.5559C31.1359 27.2982 31.0232 26.9768 31.0232 26.6284C31.0232 26.4009 31.0712 26.185 31.1575 25.9908L24.7228 21.3943C24.5163 21.6286 24.2547 21.8105 23.959 21.9183L24.8839 33.7076C25.0545 33.625 25.2451 33.5788 25.4461 33.5788C25.7048 33.5788 25.9462 33.6553 26.1499 33.7875ZM24.1942 34.5017L19.6438 28.9861C19.5559 29.0344 19.4636 29.0753 19.3676 29.1078L20.9648 42.1231C21.1508 42.14 21.3252 42.1988 21.4788 42.2905L24.9048 36.1808C24.4447 35.968 24.1244 35.4921 24.1244 34.9393C24.1244 34.7862 24.1489 34.639 24.1942 34.5017ZM24.3021 33.7099L20.1038 28.6211C20.3951 28.2985 20.5732 27.8662 20.5732 27.3911C20.5732 26.419 19.8277 25.6262 18.893 25.5855L18.872 11.6085C18.8847 11.6035 18.8972 11.5983 18.9097 11.5929L22.2446 18.5208C21.7664 18.8711 21.4545 19.4462 21.4545 20.0964C21.4545 21.1636 22.295 22.0288 23.3319 22.0288C23.3498 22.0288 23.3678 22.0285 23.3856 22.028L24.3021 33.7099ZM19.3988 11.2638L22.7637 18.254C22.9429 18.1955 23.1338 18.164 23.3319 18.164C23.434 18.164 23.5342 18.1724 23.632 18.1885L26.9203 6.51859C26.7988 6.43923 26.6908 6.34 26.6006 6.22533L19.8618 9.73246C19.8838 9.84145 19.8954 9.95438 19.8954 10.0701C19.8954 10.5397 19.7047 10.9634 19.3988 11.2638ZM19.6411 9.17816L26.3436 5.68993C26.3197 5.58775 26.3071 5.48106 26.3071 5.37133C26.3071 5.12724 26.3697 4.89819 26.4792 4.70025L23.8606 2.52788C23.7852 2.55291 23.7049 2.56643 23.6214 2.56643C23.5647 2.56643 23.5094 2.56019 23.4562 2.54834L19.4694 8.95023C19.5328 9.02077 19.5903 9.09703 19.6411 9.17816ZM19.0038 8.59145L22.9083 2.32156L15.3737 3.94295C15.3682 4.1309 15.3087 4.30489 15.2107 4.44908L17.7211 8.52887C17.8987 8.45899 18.0915 8.42071 18.293 8.42071C18.5483 8.42071 18.7896 8.48215 19.0038 8.59145ZM17.2257 8.83981L14.7426 4.80435C14.6555 4.83294 14.5627 4.84837 14.4665 4.84837C14.3335 4.84837 14.2072 4.81894 14.0934 4.76607L4.38767 12.6705L16.6906 10.0732C16.6906 10.0722 16.6906 10.0711 16.6906 10.0701C16.6906 9.58113 16.8973 9.14185 17.2257 8.83981ZM16.7963 10.6604L3.67772 13.4299C3.67543 13.5 3.66563 13.5681 3.64915 13.6335L8.27541 15.1567C8.5531 14.7919 8.98508 14.5574 9.47026 14.5574C10.3081 14.5574 10.9873 15.2565 10.9873 16.1189C10.9873 16.5239 10.8375 16.8928 10.5919 17.1703L13.2382 20.3333L17.5832 11.5492C17.2239 11.3662 16.9409 11.0486 16.7963 10.6604ZM18.153 11.7133L13.6473 20.8224L17.8698 25.8694C18.0058 25.7795 18.1547 25.7083 18.313 25.6595L18.292 11.7195C18.2452 11.7195 18.1988 11.7174 18.153 11.7133ZM13.3628 21.3974L17.4398 26.2706C17.2601 26.5045 17.1353 26.7851 17.0857 27.092L11.3867 27.1026C11.2891 26.8188 11.1179 26.5709 10.8967 26.3831L13.3628 21.3974ZM11.477 27.6996L17.0855 27.6891C17.1651 28.183 17.4392 28.6091 17.8241 28.8815L15.2745 36.4488C15.1952 36.4325 15.1132 36.424 15.0293 36.424C14.9028 36.424 14.7806 36.4434 14.6655 36.4794L10.8834 28.9297C11.2344 28.6381 11.4629 28.1965 11.477 27.6996ZM15.8036 36.7009L18.3529 29.1344C18.4937 29.174 18.6414 29.1961 18.7939 29.1982L20.3906 42.2094C20.2589 42.2636 20.1383 42.3402 20.0332 42.4347L16.0326 38.4738C16.1866 38.2601 16.2777 37.9955 16.2777 37.709C16.2777 37.3004 16.0924 36.9363 15.8036 36.7009ZM13.9303 37.099C13.9921 36.9811 14.0714 36.8743 14.1645 36.7822L10.3732 29.2141C10.2184 29.2656 10.0533 29.2934 9.88187 29.2934C9.78142 29.2934 9.68315 29.2839 9.58785 29.2656L7.71095 34.1395C7.8624 34.3302 7.95325 34.5738 7.95325 34.8393C7.95325 34.897 7.94896 34.9536 7.94068 35.009L13.9303 37.099ZM7.22129 33.7906L9.04656 29.0507C8.59027 28.7616 8.28605 28.2428 8.28605 27.6508C8.28605 27.5452 8.29572 27.4419 8.31422 27.3419L2.74049 25.5306C2.67046 25.6566 2.5833 25.7711 2.48229 25.871L6.79996 33.736C6.82594 33.7341 6.85217 33.7331 6.87863 33.7331C6.99844 33.7331 7.11367 33.7533 7.22129 33.7906ZM12.9537 20.9084L10.3893 26.0929C10.2299 26.038 10.0592 26.0082 9.88187 26.0082C9.30943 26.0082 8.8074 26.3184 8.52579 26.7844L2.92283 24.9637C2.92979 24.904 2.93338 24.8433 2.93338 24.7817C2.93338 24.3182 2.73045 23.9035 2.41105 23.6266L8.47912 17.3012C8.74497 17.5375 9.0914 17.6805 9.47026 17.6805C9.70489 17.6805 9.92708 17.6257 10.1254 17.5278L12.9537 20.9084ZM2.84515 14.3291L2.1938 23.0031L8.11809 16.8276C8.01268 16.6149 7.95323 16.3741 7.95323 16.1189C7.95323 15.9724 7.97284 15.8306 8.00951 15.6961L3.31058 14.149C3.1784 14.2498 3.01868 14.3146 2.84515 14.3291ZM24.1838 18.3739L27.4677 6.71951C27.5197 6.72592 27.5726 6.72922 27.6263 6.72922C28.3263 6.72922 28.899 6.16804 28.9428 5.4589L30.7299 5.05025L33.2835 11.0936C32.8667 11.3632 32.5896 11.8408 32.5896 12.3851C32.5896 12.5956 32.6311 12.7963 32.7061 12.9787L24.6535 18.7239C24.5161 18.5838 24.3578 18.4653 24.1838 18.3739ZM30.4718 4.49756L28.8519 4.86798C28.6576 4.36724 28.1821 4.01343 27.6263 4.01343C27.3452 4.01343 27.0847 4.1039 26.8707 4.25809L24.312 2.13536L24.3212 2.1166L28.9354 2.08332C29.0531 2.36319 29.3215 2.56028 29.6353 2.56629L30.4718 4.49756ZM30.2775 2.23953C30.248 2.28075 30.2148 2.31896 30.1784 2.35363L31.0498 4.3654L34.4217 3.59436L30.2775 2.23953ZM34.5483 4.17712L31.3068 4.91834L33.8265 10.8814C33.9002 10.8689 33.9757 10.8619 34.0526 10.861L34.9428 4.723C34.7602 4.59044 34.6202 4.39977 34.5483 4.17712ZM35.5009 4.91991L34.6233 10.9707C34.9011 11.0859 35.1371 11.2853 35.3016 11.5382L40.1179 9.56558C40.1121 9.5194 40.1091 9.47232 40.1091 9.42452C40.1091 9.2238 40.162 9.03579 40.2541 8.8744L36.0306 4.80286C35.8867 4.87847 35.7237 4.92112 35.551 4.92112C35.5342 4.92112 35.5175 4.92071 35.5009 4.91991ZM41.1534 10.512C40.8291 10.5082 40.5398 10.3539 40.3485 10.1139L35.5233 12.0901C35.5415 12.1855 35.551 12.2841 35.551 12.3851C35.551 13.1804 34.9591 13.8335 34.204 13.9031L33.0789 25.2061C33.2581 25.2814 33.4199 25.3916 33.5563 25.5284L41.6808 18.9764C41.612 18.8124 41.5738 18.6315 41.5738 18.4415C41.5738 17.9187 41.8625 17.4652 42.2847 17.2408L41.1534 10.512ZM38.6313 27.9723L42.1407 19.5531C42.0997 19.524 42.0605 19.4926 42.0231 19.4589L33.8859 26.0212C33.9639 26.2074 34.0071 26.4127 34.0071 26.6284C34.0071 26.7279 33.9979 26.8253 33.9803 26.9195L37.7221 28.2908C37.9141 28.0875 38.1826 27.9612 38.4797 27.9612C38.5312 27.9612 38.5818 27.965 38.6313 27.9723ZM25.2092 20.0964C25.2092 20.3813 25.1493 20.6518 25.0418 20.8953L31.4966 25.5062C31.7614 25.2514 32.1165 25.0948 32.507 25.0927L33.6271 13.8398C33.4007 13.7668 33.1977 13.6393 33.0326 13.4723L24.9979 19.2048C25.1329 19.4715 25.2092 19.7748 25.2092 20.0964Z" fill="white"/>
<path d="M68.3286 33.5894H70.1127C70.5603 33.5894 70.9574 33.6807 71.3042 33.8633C71.6509 34.0459 71.919 34.3032 72.1085 34.6352C72.3021 34.9631 72.3988 35.3407 72.3988 35.7682C72.3988 36.1957 72.3021 36.5754 72.1085 36.9074C71.919 37.2353 71.6509 37.4905 71.3042 37.6731C70.9574 37.8558 70.5603 37.9471 70.1127 37.9471H68.3286V33.5894ZM70.0765 37.4055C70.4192 37.4055 70.7195 37.337 70.9776 37.2C71.2397 37.0631 71.4413 36.8722 71.5824 36.6273C71.7235 36.3783 71.7941 36.0919 71.7941 35.7682C71.7941 35.4445 71.7235 35.1602 71.5824 34.9153C71.4413 34.6663 71.2397 34.4733 70.9776 34.3364C70.7195 34.1994 70.4192 34.131 70.0765 34.131H68.9334V37.4055H70.0765Z" fill="white"/>
<path d="M77.8686 36.8576H75.6188L75.1531 37.9471H74.5302L76.4473 33.5894H77.0461L78.9693 37.9471H78.3343L77.8686 36.8576ZM77.6569 36.3596L76.7437 34.2243L75.8305 36.3596H77.6569Z" fill="white"/>
<path d="M82.134 34.131H80.6825V33.5894H84.1842V34.131H82.7327V37.9471H82.134V34.131Z" fill="white"/>
<path d="M89.2327 36.8576H86.9829L86.5172 37.9471H85.8943L87.8115 33.5894H88.4102L90.3334 37.9471H89.6984L89.2327 36.8576ZM89.021 36.3596L88.1078 34.2243L87.1946 36.3596H89.021Z" fill="white"/>
<path d="M99.0967 36.8576H96.8469L96.3812 37.9471H95.7583L97.6754 33.5894H98.2742L100.197 37.9471H99.5624L99.0967 36.8576ZM98.885 36.3596L97.9718 34.2243L97.0586 36.3596H98.885Z" fill="white"/>
<path d="M106.375 33.5894V37.9471H105.879L103.339 34.6975V37.9471H102.734V33.5894H103.23L105.77 36.839V33.5894H106.375Z" fill="white"/>
<path d="M112.244 36.8576H109.995L109.529 37.9471H108.906L110.823 33.5894H111.422L113.345 37.9471H112.71L112.244 36.8576ZM112.033 36.3596L111.12 34.2243L110.206 36.3596H112.033Z" fill="white"/>
<path d="M115.882 33.5894H116.487V37.4055H118.779V37.9471H115.882V33.5894Z" fill="white"/>
<path d="M122.556 36.4405V37.9471H121.957V36.4281L120.276 33.5894H120.923L122.277 35.8865L123.638 33.5894H124.237L122.556 36.4405Z" fill="white"/>
<path d="M127.549 34.131H126.098V33.5894H129.599V34.131H128.148V37.9471H127.549V34.131Z" fill="white"/>
<path d="M132.163 33.5894H132.768V37.9471H132.163V33.5894Z" fill="white"/>
<path d="M137.833 37.9969C137.41 37.9969 137.027 37.9014 136.684 37.7105C136.346 37.5154 136.08 37.2498 135.886 36.9137C135.693 36.5733 135.596 36.1915 135.596 35.7682C135.596 35.3449 135.693 34.9651 135.886 34.629C136.08 34.2887 136.348 34.023 136.69 33.8321C137.033 33.6371 137.416 33.5396 137.84 33.5396C138.17 33.5396 138.473 33.5977 138.747 33.7139C139.021 33.8259 139.255 33.994 139.448 34.2181L139.055 34.6103C138.737 34.2658 138.339 34.0936 137.864 34.0936C137.549 34.0936 137.265 34.1662 137.011 34.3115C136.757 34.4567 136.557 34.658 136.412 34.9153C136.271 35.1685 136.201 35.4528 136.201 35.7682C136.201 36.0836 136.271 36.37 136.412 36.6273C136.557 36.8805 136.757 37.0797 137.011 37.2249C137.265 37.3702 137.549 37.4428 137.864 37.4428C138.335 37.4428 138.733 37.2685 139.055 36.9199L139.448 37.3121C139.255 37.5362 139.019 37.7063 138.741 37.8226C138.466 37.9388 138.164 37.9969 137.833 37.9969Z" fill="white"/>
<path d="M143.432 37.9969C143.114 37.9969 142.805 37.9471 142.507 37.8475C142.213 37.7437 141.981 37.6109 141.811 37.449L142.035 36.9635C142.196 37.1129 142.402 37.2353 142.652 37.3308C142.906 37.4221 143.166 37.4677 143.432 37.4677C143.783 37.4677 144.045 37.4075 144.218 37.2872C144.392 37.1627 144.478 36.9987 144.478 36.7954C144.478 36.646 144.43 36.5256 144.333 36.4343C144.241 36.3389 144.124 36.2662 143.983 36.2164C143.845 36.1666 143.65 36.1106 143.396 36.0483C143.077 35.9695 142.819 35.8906 142.622 35.8118C142.428 35.7329 142.261 35.6126 142.12 35.4507C141.983 35.2847 141.914 35.0627 141.914 34.7846C141.914 34.5522 141.973 34.3426 142.09 34.1559C142.211 33.9691 142.392 33.8197 142.634 33.7076C142.876 33.5956 143.176 33.5396 143.535 33.5396C143.785 33.5396 144.031 33.5728 144.273 33.6392C144.515 33.7056 144.722 33.801 144.896 33.9255L144.696 34.4235C144.519 34.3073 144.329 34.2202 144.128 34.1621C143.926 34.0998 143.729 34.0687 143.535 34.0687C143.192 34.0687 142.934 34.133 142.761 34.2617C142.592 34.3903 142.507 34.5563 142.507 34.7597C142.507 34.9091 142.555 35.0315 142.652 35.127C142.749 35.2183 142.868 35.2909 143.009 35.3449C143.154 35.3947 143.35 35.4486 143.595 35.5067C143.914 35.5856 144.17 35.6645 144.364 35.7433C144.557 35.8222 144.722 35.9425 144.859 36.1044C145.001 36.2662 145.071 36.4841 145.071 36.758C145.071 36.9863 145.011 37.1959 144.89 37.3868C144.769 37.5735 144.585 37.7229 144.339 37.835C144.093 37.9429 143.791 37.9969 143.432 37.9969Z" fill="white"/>
<path d="M154.486 38.0155L153.923 37.4366C153.548 37.8101 153.076 37.9969 152.508 37.9969C152.226 37.9969 151.972 37.9491 151.746 37.8537C151.52 37.7582 151.343 37.6254 151.214 37.4553C151.089 37.281 151.026 37.0838 151.026 36.8639C151.026 36.5982 151.105 36.3638 151.262 36.1604C151.423 35.9529 151.687 35.7412 152.054 35.5254C151.869 35.3345 151.738 35.1623 151.661 35.0087C151.585 34.8552 151.546 34.6954 151.546 34.5294C151.546 34.2347 151.649 33.9981 151.855 33.8197C152.064 33.6412 152.343 33.552 152.689 33.552C153.012 33.552 153.268 33.6329 153.457 33.7948C153.647 33.9566 153.742 34.1787 153.742 34.4609C153.742 34.6809 153.671 34.878 153.53 35.0523C153.393 35.2266 153.163 35.4092 152.841 35.6001L153.887 36.6709C154.008 36.4343 154.094 36.1708 154.147 35.8803L154.613 36.0359C154.54 36.4177 154.417 36.7497 154.244 37.0319L154.812 37.6171L154.486 38.0155ZM152.689 33.9878C152.5 33.9878 152.351 34.0376 152.242 34.1372C152.137 34.2326 152.085 34.3592 152.085 34.5169C152.085 34.629 152.113 34.7369 152.169 34.8406C152.23 34.9444 152.345 35.0855 152.514 35.264C152.792 35.1021 152.984 34.9631 153.089 34.8469C153.197 34.7307 153.252 34.6041 153.252 34.4671C153.252 34.3219 153.201 34.2057 153.101 34.1185C153.004 34.0313 152.867 33.9878 152.689 33.9878ZM152.544 37.4988C152.964 37.4988 153.308 37.3619 153.578 37.088L152.375 35.8554C152.085 36.0214 151.881 36.177 151.764 36.3223C151.651 36.4634 151.595 36.6231 151.595 36.8016C151.595 37.0091 151.681 37.1772 151.855 37.3059C152.032 37.4345 152.262 37.4988 152.544 37.4988Z" fill="white"/>
<path d="M163.667 36.8576H161.417L160.951 37.9471H160.328L162.246 33.5894H162.844L164.768 37.9471H164.133L163.667 36.8576ZM163.455 36.3596L162.542 34.2243L161.629 36.3596H163.455Z" fill="white"/>
<path d="M167.304 33.5894H167.909V37.9471H167.304V33.5894Z" fill="white"/>
<path fill-rule="evenodd" clip-rule="evenodd" d="M82.9359 7.63623H93.025V8.62942H93.026V9.56155H93.0254V10.3716H93.0249V10.663H83.2328C80.0275 10.663 77.4371 13.3293 77.4371 16.6094C77.4371 19.9087 80.0275 22.575 83.2328 22.575H93.0245V23.6834L93.0244 24.56H93.0249V25.5826H82.9359C78.1177 25.5826 74.2185 21.5689 74.2185 16.6094C74.2185 11.6754 78.1177 7.63623 82.9359 7.63623ZM62.7361 10.7619V25.5954H65.8241V10.7619H72.572V7.66182H56.0645V10.7619H62.7361ZM151.062 10.7619V25.5954H154.15V10.7619H160.898V7.66182H144.39V10.7619H151.062ZM125.127 25.5168L134.114 10.1731L134.987 8.65774C135.756 7.32403 137.633 7.33131 138.392 8.67094L140.091 11.6717C141.947 14.9023 145.947 21.8906 148.06 25.5827H144.316L141.401 20.5731H133.448L135.187 17.6929H139.772L136.701 12.5779L128.95 25.5168H125.127ZM166.226 10.1731L157.238 25.5168H161.061L168.812 12.5779L171.883 17.6929H167.299L165.559 20.5731H173.513L176.427 25.5827H180.171C178.059 21.8906 174.059 14.9023 172.202 11.6717L170.503 8.67094C169.745 7.33131 167.867 7.32403 167.099 8.65774L166.226 10.1731ZM114.889 7.66182H104.8V7.66191H104.799L104.799 8.65501L104.799 9.58715L104.799 25.6082H107.739V25.6082H114.889C119.707 25.6082 123.606 21.5945 123.606 16.635C123.606 11.701 119.707 7.66182 114.889 7.66182ZM107.739 22.6006V10.6885H114.592C117.797 10.6885 120.388 13.3549 120.388 16.635C120.388 19.9343 117.797 22.6006 114.592 22.6006H107.739Z" fill="white"/>
</svg>
